<svg width="122" height="32" viewBox="0 0 122 32" fill="none" xmlns="http://www.w3.org/2000/svg">
<path fill-rule="evenodd" clip-rule="evenodd" d="M42.6606 11.5796C39.265 8.50389 33.0222 2.74459 31.3271 1.22136L27.7949 4.44406L39.0428 14.8639C40.0721 15.8184 41.7697 15.7862 42.7544 14.7933C43.6693 13.8707 43.6284 12.4559 42.6606 11.5796Z" fill="white"/>
<path fill-rule="evenodd" clip-rule="evenodd" d="M28.0343 10.7327C24.5711 7.53481 19.8231 2.85629 18.0947 1.27264L14.3486 4.69157L24.4897 14.2893" fill="white"/>
<path fill-rule="evenodd" clip-rule="evenodd" d="M55.9136 11.5352C52.5177 8.42534 46.2751 2.60184 44.58 1.0618L41.0479 4.32031L52.2955 14.8561C53.325 15.8215 55.0226 15.7887 56.0071 14.7847C56.922 13.852 56.8813 12.4214 55.9136 11.5352Z" fill="white"/>
<path fill-rule="evenodd" clip-rule="evenodd" d="M23.7101 13.5544C23.7101 13.5544 24.5472 13.765 25.1989 13.1999C25.3687 13.0527 25.5765 12.8789 25.7417 12.7272C27.5835 11.0394 35.3289 3.81546 37.9218 1.39628C39.0527 0.341118 40.6344 -0.186564 42.192 0.059874C42.3529 0.085278 42.5138 0.107681 42.6759 0.133885C43.4502 0.258505 44.16 0.624962 44.717 1.15504L45.4646 1.86635C45.4646 1.86635 45.3142 1.83155 44.951 1.85015C44.5555 1.87035 44.2713 2.10099 43.9227 2.36803L31.8263 13.985C30.7309 15.037 29.2261 15.6365 27.6772 15.5525C26.4397 15.4853 25.0166 14.9966 23.7101 13.5544Z" fill="white"/>
<path fill-rule="evenodd" clip-rule="evenodd" d="M14.4646 10.8071L7.09441 3.64298C7.07458 3.62358 5.16239 1.77229 4.44968 1.08299C3.44598 0.112237 1.82003 0.112637 0.816946 1.08399C-0.195428 2.06474 -0.185102 3.65819 0.840696 4.62614C4.01557 7.6218 9.08591 12.4449 10.8288 14.0916L14.4646 10.8071Z" fill="white"/>
<path fill-rule="evenodd" clip-rule="evenodd" d="M10.2646 13.5544C10.2646 13.5544 11.1017 13.765 11.7535 13.1999C11.923 13.0527 12.131 12.8789 12.2962 12.7272C14.138 11.0394 21.8834 3.81546 24.4763 1.39628C25.6072 0.341118 27.189 -0.186564 28.7466 0.059874C28.9074 0.085278 29.0683 0.107681 29.2304 0.133885C30.0047 0.258505 30.7143 0.624962 31.2713 1.15504L32.0189 1.86635C32.0189 1.86635 31.8688 1.83155 31.5053 1.85015C31.11 1.87035 30.8256 2.10099 30.4774 2.36803L18.3808 13.985C17.2854 15.037 15.7807 15.6365 14.2317 15.5525C12.9943 15.4853 11.5711 14.9966 10.2646 13.5544Z" fill="white"/>
<path fill-rule="evenodd" clip-rule="evenodd" d="M17.9869 1.16811C17.4303 0.632428 16.7211 0.261771 15.9472 0.135551C15.7847 0.109147 15.6234 0.0863438 15.4623 0.0605398C13.9047 -0.188699 12.323 0.345184 11.1923 1.41235C9.58448 2.92958 4.02448 8.2244 0.776294 11.2895C-0.249503 12.2574 -0.260036 13.8507 0.752751 14.8316C1.75562 15.803 3.38158 15.8034 4.38528 14.8326C5.09819 14.1431 6.82927 12.4671 6.8493 12.4477L17.193 2.3953C17.5414 2.12526 17.8258 1.89202 18.2211 1.87162C18.5845 1.85262 18.7349 1.88782 18.7349 1.88782L17.9869 1.16811Z" fill="white"/>
<path d="M1.05756e-08 23.504L3.25635 31.8366H4.19707L7.44136 23.504H6.62124L3.73877 31.078H3.70259L0.820117 23.504H1.05756e-08Z" fill="white"/>
<path d="M8.98454 23.6324C8.80363 23.6324 8.65891 23.6907 8.55036 23.8074C8.42976 23.9008 8.36946 24.0408 8.36946 24.2159C8.36946 24.3793 8.42976 24.5193 8.55036 24.636C8.65891 24.7411 8.80363 24.7994 8.98454 24.7994C9.15339 24.7994 9.28606 24.7411 9.40666 24.636C9.52727 24.5193 9.59963 24.3793 9.59963 24.2159C9.59963 24.0408 9.53933 23.9008 9.41872 23.8074C9.29812 23.6907 9.15339 23.6324 8.98454 23.6324ZM8.62273 25.8031V31.8366H9.34636V25.8031H8.62273Z" fill="white"/>
<path d="M13.8461 25.6397C13.3878 25.6397 12.9777 25.7797 12.64 26.0598C12.3506 26.2815 12.1214 26.585 11.9526 26.9584V25.8031H11.2289V31.8366H11.9526V28.6506C11.9526 28.0438 12.1094 27.5186 12.4471 27.0751C12.7847 26.585 13.243 26.3516 13.7978 26.3516C14.1114 26.3516 14.425 26.3866 14.7506 26.4799V25.7681C14.5094 25.6747 14.2079 25.6397 13.8461 25.6397Z" fill="white"/>
<path d="M17.0825 23.8541L16.3589 24.1459V25.8031H15.0322V26.4099H16.3589V30.4945C16.3589 30.938 16.4433 31.2648 16.6363 31.4748C16.8413 31.7082 17.1911 31.8366 17.6735 31.8366H18.5539V31.2298H17.77C17.5047 31.2298 17.3238 31.1714 17.2273 31.0664C17.1308 30.9497 17.0825 30.7513 17.0825 30.4945V26.4099H18.7107V25.8031H17.0825V23.8541Z" fill="white"/>
<path d="M19.8032 25.8031V29.5259C19.8032 31.1714 20.563 32 22.0827 32C22.9752 32 23.6747 31.6032 24.1571 30.8213V31.8366H24.8807V25.8031H24.1571V29.4675C24.1089 30.0394 23.9038 30.5062 23.542 30.8563C23.1802 31.2064 22.7581 31.3931 22.2756 31.3931C21.6726 31.3931 21.2264 31.2298 20.9369 30.903C20.6595 30.5879 20.5269 30.1211 20.5269 29.4909V25.8031H19.8032Z" fill="white"/>
<path d="M29.0401 25.6397C28.3285 25.6397 27.7496 25.7797 27.3034 26.0715C26.7968 26.3749 26.4833 26.8417 26.3627 27.4486L27.0742 27.4953C27.1707 27.0751 27.3999 26.76 27.7617 26.5383C28.0873 26.3282 28.4974 26.2349 29.0039 26.2349C30.21 26.2349 30.813 26.8067 30.813 27.9504V28.3122L29.221 28.3355C28.2803 28.3355 27.5446 28.4989 27.0381 28.814C26.4471 29.1408 26.1576 29.6543 26.1576 30.3545C26.1576 30.8446 26.3506 31.2531 26.7486 31.5565C27.1104 31.8483 27.6049 32 28.2079 32C28.7989 32 29.3416 31.8483 29.8482 31.5682C30.2582 31.3348 30.5959 31.0314 30.8492 30.6813V31.8366H31.5366V27.9504C31.5366 27.2502 31.3437 26.7133 30.9819 26.3282C30.5597 25.8614 29.9085 25.6397 29.0401 25.6397ZM30.813 28.8607V29.4909C30.813 29.9577 30.5597 30.4012 30.0653 30.798C29.5587 31.2181 28.9798 31.4282 28.3527 31.4282C27.9185 31.4282 27.5567 31.3231 27.2913 31.1247C27.026 30.9263 26.8933 30.6696 26.8933 30.3428C26.8933 29.3859 27.6773 28.8957 29.2572 28.884L30.813 28.8607Z" fill="white"/>
<path d="M33.2825 23.3406V31.8366H34.0061V23.3406H33.2825Z" fill="white"/>
<path d="M39.8873 23.504V31.8366H40.623V24.6827H40.6713L43.8914 31.8366H44.603L47.8352 24.6827H47.8714V31.8366H48.6071V23.504H47.6302L44.2774 30.938H44.2412L40.8643 23.504H39.8873Z" fill="white"/>
<path d="M52.8903 25.6397C52.1787 25.6397 51.5998 25.7797 51.1536 26.0715C50.647 26.3749 50.3335 26.8417 50.2129 27.4486L50.9244 27.4953C51.0209 27.0751 51.2501 26.76 51.6119 26.5383C51.9375 26.3282 52.3476 26.2349 52.8541 26.2349C54.0602 26.2349 54.6632 26.8067 54.6632 27.9504V28.3122L53.0712 28.3355C52.1305 28.3355 51.3948 28.4989 50.8883 28.814C50.2973 29.1408 50.0078 29.6543 50.0078 30.3545C50.0078 30.8446 50.2008 31.2531 50.5988 31.5565C50.9606 31.8483 51.4551 32 52.0581 32C52.6491 32 53.1918 31.8483 53.6984 31.5682C54.1084 31.3348 54.4461 31.0314 54.6994 30.6813V31.8366H55.3868V27.9504C55.3868 27.2502 55.1939 26.7133 54.8321 26.3282C54.4099 25.8614 53.7587 25.6397 52.8903 25.6397ZM54.6632 28.8607V29.4909C54.6632 29.9577 54.4099 30.4012 53.9155 30.798C53.4089 31.2181 52.83 31.4282 52.2029 31.4282C51.7687 31.4282 51.4069 31.3231 51.1415 31.1247C50.8762 30.9263 50.7435 30.6696 50.7435 30.3428C50.7435 29.3859 51.5275 28.8957 53.1074 28.884L54.6632 28.8607Z" fill="white"/>
<path d="M58.4111 23.8541L57.6875 24.1459V25.8031H56.3608V26.4099H57.6875V30.4945C57.6875 30.938 57.7719 31.2648 57.9649 31.4748C58.1699 31.7082 58.5197 31.8366 59.0021 31.8366H59.8825V31.2298H59.0986C58.8332 31.2298 58.6523 31.1714 58.5559 31.0664C58.4594 30.9497 58.4111 30.7513 58.4111 30.4945V26.4099H60.0393V25.8031H58.4111V23.8541Z" fill="white"/>
<path d="M62.6394 23.8541L61.9157 24.1459V25.8031H60.5891V26.4099H61.9157V30.4945C61.9157 30.938 62.0002 31.2648 62.1931 31.4748C62.3982 31.7082 62.7479 31.8366 63.2304 31.8366H64.1108V31.2298H63.3268C63.0615 31.2298 62.8806 31.1714 62.7841 31.0664C62.6876 30.9497 62.6394 30.7513 62.6394 30.4945V26.4099H64.2676V25.8031H62.6394V23.8541Z" fill="white"/>
<path d="M67.8807 25.6397C67.0003 25.6397 66.3008 25.9548 65.7701 26.585C65.2515 27.1918 64.9983 27.9271 64.9983 28.814C64.9983 29.771 65.2636 30.5529 65.8063 31.1364C66.3249 31.7082 67.0244 32 67.9049 32C68.7009 32 69.3401 31.7783 69.8466 31.3348C70.2567 30.9613 70.534 30.4829 70.6788 29.8993H69.9431C69.7863 30.3662 69.5692 30.7163 69.2798 30.9613C68.93 31.2414 68.4717 31.3931 67.9049 31.3931C67.2536 31.3931 66.747 31.1831 66.3611 30.7629C65.9872 30.3428 65.7822 29.7593 65.746 29.0241H70.8114C70.7753 27.9854 70.534 27.1802 70.0999 26.6083C69.6054 25.9548 68.8697 25.6397 67.8807 25.6397ZM67.8928 26.2465C69.2074 26.2465 69.931 26.9818 70.0516 28.4522H65.7581C65.8184 27.7987 66.0355 27.2735 66.4093 26.8651C66.7832 26.4449 67.2777 26.2465 67.8928 26.2465Z" fill="white"/>
<path d="M74.5846 25.6397C74.1263 25.6397 73.7162 25.7797 73.3786 26.0598C73.0891 26.2815 72.8599 26.585 72.6911 26.9584V25.8031H71.9675V31.8366H72.6911V28.6506C72.6911 28.0438 72.8479 27.5186 73.1856 27.0751C73.5233 26.585 73.9816 26.3516 74.5364 26.3516C74.8499 26.3516 75.1635 26.3866 75.4892 26.4799V25.7681C75.2479 25.6747 74.9464 25.6397 74.5846 25.6397Z" fill="white"/>
<path d="M78.4362 25.6397C77.7849 25.6397 77.2301 25.7797 76.7959 26.0715C76.3376 26.3749 76.1205 26.76 76.1205 27.2502C76.1205 27.7403 76.3497 28.1255 76.8321 28.4055C77.1216 28.5806 77.6281 28.7557 78.3517 28.9424C79.0633 29.1174 79.5216 29.2575 79.7387 29.3625C80.1488 29.5609 80.3538 29.841 80.3538 30.2028C80.3538 30.9964 79.7508 31.3931 78.5447 31.3931C77.9658 31.3931 77.5316 31.2881 77.2422 31.078C76.9286 30.8446 76.7356 30.4595 76.6633 29.9344H75.9517C76.0964 31.3115 76.9648 32 78.5688 32C80.2573 32 81.1015 31.3815 81.1015 30.1678C81.1015 29.6543 80.8483 29.2458 80.3538 28.9541C80.0402 28.7673 79.4975 28.5806 78.7377 28.3939C78.0985 28.2305 77.6643 28.0904 77.4231 27.9737C77.0492 27.787 76.8683 27.5419 76.8683 27.2385C76.8683 26.9351 77.013 26.7017 77.3025 26.515C77.5919 26.3282 77.9658 26.2465 78.4241 26.2465C78.9789 26.2465 79.401 26.3516 79.6905 26.5733C79.9558 26.7717 80.1246 27.0751 80.2091 27.4953H80.9206C80.7397 26.2582 79.9076 25.6397 78.4362 25.6397Z" fill="white"/>
<path d="M86.3982 23.504V31.8366H87.1339V24.6827H87.1821L90.4023 31.8366H91.1139L94.3461 24.6827H94.3823V31.8366H95.118V23.504H94.1411L90.7882 30.938H90.7521L87.3751 23.504H86.3982Z" fill="white"/>
<path d="M99.4012 25.6397C98.6896 25.6397 98.1107 25.7797 97.6644 26.0715C97.1579 26.3749 96.8443 26.8417 96.7237 27.4486L97.4353 27.4953C97.5318 27.0751 97.7609 26.76 98.1227 26.5383C98.4484 26.3282 98.8584 26.2349 99.365 26.2349C100.571 26.2349 101.174 26.8067 101.174 27.9504V28.3122L99.5821 28.3355C98.6413 28.3355 97.9057 28.4989 97.3991 28.814C96.8081 29.1408 96.5187 29.6543 96.5187 30.3545C96.5187 30.8446 96.7117 31.2531 97.1097 31.5565C97.4715 31.8483 97.966 32 98.569 32C99.16 32 99.7027 31.8483 100.209 31.5682C100.619 31.3348 100.957 31.0314 101.21 30.6813V31.8366H101.898V27.9504C101.898 27.2502 101.705 26.7133 101.343 26.3282C100.921 25.8614 100.27 25.6397 99.4012 25.6397ZM101.174 28.8607V29.4909C101.174 29.9577 100.921 30.4012 100.426 30.798C99.9198 31.2181 99.3409 31.4282 98.7137 31.4282C98.2795 31.4282 97.9177 31.3231 97.6524 31.1247C97.387 30.9263 97.2544 30.6696 97.2544 30.3428C97.2544 29.3859 98.0383 28.8957 99.6183 28.884L101.174 28.8607Z" fill="white"/>
<path d="M104.922 23.8541L104.198 24.1459V25.8031H102.872V26.4099H104.198V30.4945C104.198 30.938 104.283 31.2648 104.476 31.4748C104.681 31.7082 105.031 31.8366 105.513 31.8366H106.393V31.2298H105.609C105.344 31.2298 105.163 31.1714 105.067 31.0664C104.97 30.9497 104.922 30.7513 104.922 30.4945V26.4099H106.55V25.8031H104.922V23.8541Z" fill="white"/>
<path d="M109.15 23.8541L108.427 24.1459V25.8031H107.1V26.4099H108.427V30.4945C108.427 30.938 108.511 31.2648 108.704 31.4748C108.909 31.7082 109.259 31.8366 109.741 31.8366H110.622V31.2298H109.838C109.572 31.2298 109.391 31.1714 109.295 31.0664C109.198 30.9497 109.15 30.7513 109.15 30.4945V26.4099H110.778V25.8031H109.15V23.8541Z" fill="white"/>
<path d="M114.392 25.6397C113.511 25.6397 112.812 25.9548 112.281 26.585C111.762 27.1918 111.509 27.9271 111.509 28.814C111.509 29.771 111.774 30.5529 112.317 31.1364C112.836 31.7082 113.535 32 114.416 32C115.212 32 115.851 31.7783 116.357 31.3348C116.768 30.9613 117.045 30.4829 117.19 29.8993H116.454C116.297 30.3662 116.08 30.7163 115.791 30.9613C115.441 31.2414 114.983 31.3931 114.416 31.3931C113.764 31.3931 113.258 31.1831 112.872 30.7629C112.498 30.3428 112.293 29.7593 112.257 29.0241H117.322C117.286 27.9854 117.045 27.1802 116.611 26.6083C116.116 25.9548 115.381 25.6397 114.392 25.6397ZM114.404 26.2465C115.718 26.2465 116.442 26.9818 116.562 28.4522H112.269C112.329 27.7987 112.546 27.2735 112.92 26.8651C113.294 26.4449 113.789 26.2465 114.404 26.2465Z" fill="white"/>
<path d="M121.095 25.6397C120.637 25.6397 120.227 25.7797 119.889 26.0598C119.6 26.2815 119.371 26.585 119.202 26.9584V25.8031H118.478V31.8366H119.202V28.6506C119.202 28.0438 119.359 27.5186 119.696 27.0751C120.034 26.585 120.492 26.3516 121.047 26.3516C121.361 26.3516 121.674 26.3866 122 26.4799V25.7681C121.759 25.6747 121.457 25.6397 121.095 25.6397Z" fill="white"/>
</svg>
